<?xml version="1.0"?>
<svg xmlns="http://www.w3.org/2000/svg" xmlns:xlink="http://www.w3.org/1999/xlink" version="1.1" id="Capa_1" x="0px" y="0px" width="512px" height="512px" viewBox="0 0 430.113 430.114" style="enable-background:new 0 0 430.113 430.114;" xml:space="preserve"><g><g>
	<path id="Facebook" d="M158.081,83.3c0,10.839,0,59.218,0,59.218h-43.385v72.412h43.385v215.183h89.122V214.936h59.805   c0,0,5.601-34.721,8.316-72.685c-7.784,0-67.784,0-67.784,0s0-42.127,0-49.511c0-7.4,9.717-17.354,19.321-17.354   c9.586,0,29.818,0,48.557,0c0-9.859,0-43.924,0-75.385c-25.016,0-53.476,0-66.021,0C155.878-0.004,158.081,72.48,158.081,83.3z" data-original="#000000" class="active-path" data-old_color="#ffffff" fill="#ffffff"/>
</g></g> </svg>


<svg xmlns="http://www.w3.org/2000/svg" viewBox="0 0 370.88 370.88" width="512" height="512"><path d="M355.6 66.16H15.28C6.841 66.16 0 73.001 0 81.44v208c0 8.439 6.841 15.28 15.28 15.28H355.6c8.439 0 15.28-6.841 15.28-15.28v-208c0-8.439-6.841-15.28-15.28-15.28zm-340.32 12H355.6a3.28 3.28 0 0 1 3.12 2.32L185.44 188.72 12.16 80.48a3.28 3.28 0 0 1 3.12-2.32zm-3.28 16L136.64 172 12 270.88V94.16zm346.88 195.2a3.28 3.28 0 0 1-3.28 3.28H15.28a3.28 3.28 0 0 1-3.28-3.28v-3.2l135.44-107.04 34.8 21.76a5.999 5.999 0 0 0 6.4 0l34.8-21.76 135.44 107.04v3.2zm0-18.48l-124.96-98.56 124.96-77.44v176z" data-original="#000000" class="active-path" data-old_color="#ffffff" fill="#fff"/></svg>
